<svg width="56" height="56" viewBox="0 0 56 56" fill="none" xmlns="http://www.w3.org/2000/svg">
<path fill-rule="evenodd" clip-rule="evenodd" d="M14.0001 5.60001C15.5465 5.60001 16.8001 6.85361 16.8001 8.40001V11.2H19.6001C21.1465 11.2 22.4001 12.4536 22.4001 14C22.4001 15.5464 21.1465 16.8 19.6001 16.8H16.8001V19.6C16.8001 21.1464 15.5465 22.4 14.0001 22.4C12.4537 22.4 11.2001 21.1464 11.2001 19.6V16.8H8.4001C6.8537 16.8 5.6001 15.5464 5.6001 14C5.6001 12.4536 6.8537 11.2 8.4001 11.2H11.2001V8.40001C11.2001 6.85361 12.4537 5.60001 14.0001 5.60001ZM14.0001 33.6C15.5465 33.6 16.8001 34.8536 16.8001 36.4V39.2H19.6001C21.1465 39.2 22.4001 40.4536 22.4001 42C22.4001 43.5464 21.1465 44.8 19.6001 44.8H16.8001V47.6C16.8001 49.1464 15.5465 50.4 14.0001 50.4C12.4537 50.4 11.2001 49.1464 11.2001 47.6V44.8H8.4001C6.8537 44.8 5.6001 43.5464 5.6001 42C5.6001 40.4536 6.8537 39.2 8.4001 39.2H11.2001V36.4C11.2001 34.8536 12.4537 33.6 14.0001 33.6Z" fill="#FF7500"/>
<path fill-rule="evenodd" clip-rule="evenodd" d="M33.6 5.60001C34.8704 5.60001 35.9816 6.45536 36.3067 7.68351L39.6085 20.157L48.9992 25.5747C49.8659 26.0747 50.4 26.9993 50.4 28C50.4 29.0007 49.8659 29.9253 48.9992 30.4253L39.6085 35.843L36.3067 48.3165C35.9816 49.5447 34.8704 50.4 33.6 50.4C32.3295 50.4 31.2183 49.5447 30.8932 48.3165L27.5914 35.843L18.2009 30.4253C17.3341 29.9253 16.8001 29.0007 16.8001 28C16.8001 26.9993 17.3341 26.0748 18.2009 25.5747L27.5914 20.157L30.8932 7.68351C31.2183 6.45536 32.3295 5.60001 33.6 5.60001Z" fill="#FF7500"/>
</svg>
